<?xml version="1.0" encoding="UTF-8" standalone="no"?>
<!-- Created with Inkscape (http://www.inkscape.org/) -->

<svg
   xmlns:dc="http://purl.org/dc/elements/1.1/"
   xmlns:cc="http://creativecommons.org/ns#"
   xmlns:rdf="http://www.w3.org/1999/02/22-rdf-syntax-ns#"
   xmlns:svg="http://www.w3.org/2000/svg"
   xmlns="http://www.w3.org/2000/svg"
   xmlns:xlink="http://www.w3.org/1999/xlink"
   version="1.1"
   width="65.058006"
   height="70.67984"
   viewBox="0 0 65.058006 70.67984"
   id="Layer_1"
   xml:space="preserve"><metadata
     id="metadata294"><rdf:RDF><cc:Work
         rdf:about=""><dc:format>image/svg+xml</dc:format><dc:type
           rdf:resource="http://purl.org/dc/dcmitype/StillImage" /><dc:title></dc:title></cc:Work></rdf:RDF></metadata><defs
     id="defs292"><defs
       id="defs5"><rect
         width="1024"
         height="768"
         x="0"
         y="0"
         id="SVGID_1_" /></defs><clipPath
       id="SVGID_2_"><use
         id="use9"
         style="overflow:visible"
         x="0"
         y="0"
         width="1024"
         height="768"
         xlink:href="#SVGID_1_" /></clipPath><defs
       id="defs88"><rect
         width="1024"
         height="768"
         x="0"
         y="0"
         id="SVGID_8_" /></defs><clipPath
       id="SVGID_9_"><use
         id="use92"
         style="overflow:visible"
         x="0"
         y="0"
         width="1024"
         height="768"
         xlink:href="#SVGID_8_" /></clipPath></defs><g
     transform="translate(-183.175,-260.563)"
     id="g3196"><g
       id="g4221"
       style="fill:#5555ff"><g
         id="g4216"
         style="fill:#5555ff"><path
           d="m 196.381,323 c 1.192,0.105 2.57,3.489 3.229,4.377 1.668,2.249 3.689,3.378 6.471,3.623 2.282,0.201 4.508,-1.284 5.925,-2.915 0.841,-0.967 2.464,-4.969 3.777,-5.085 4.46,-0.394 4.498,-7.396 0,-7 -2.431,0.215 -4.308,1.055 -5.924,2.915 -0.842,0.967 -2.465,4.969 -3.778,5.085 -1,0.088 -2.692,-3.654 -3.228,-4.377 -1.669,-2.249 -3.69,-3.378 -6.472,-3.623 -4.499,-0.396 -4.46,6.606 0,7"
           clip-path="url(#SVGID_9_)"
           id="path118"
           style="fill:#5555ff" /><path
           d="m 215.783,323 c 1.19,0.105 2.569,3.491 3.227,4.377 1.668,2.249 3.689,3.378 6.471,3.623 2.281,0.201 4.507,-1.285 5.924,-2.915 0.84,-0.967 2.463,-4.969 3.776,-5.085 4.46,-0.394 4.498,-7.396 0,-7 -2.431,0.215 -4.308,1.055 -5.924,2.915 -0.841,0.966 -2.465,4.97 -3.776,5.085 -1,0.088 -2.692,-3.654 -3.228,-4.377 -1.668,-2.249 -3.689,-3.378 -6.47,-3.623 -4.499,-0.397 -4.46,6.606 0,7"
           clip-path="url(#SVGID_9_)"
           id="path120"
           style="fill:#5555ff" /><path
           d="m 191.522,329.559 c 0.939,-1.587 1.771,-3.234 2.77,-4.785 0.409,-0.635 0.757,-1.009 1.343,-1.542 -0.333,0.303 0.579,-0.28 0.106,-0.087 0.732,-0.299 -0.195,-0.109 0.64,-0.145 4.496,-0.19 4.515,-7.19 0,-7 -5.943,0.251 -8.261,5.565 -10.903,10.026 -2.306,3.892 3.747,7.412 6.044,3.533"
           clip-path="url(#SVGID_9_)"
           id="path122"
           style="fill:#5555ff" /></g><path
         d="m 235.181,323 c 0.426,0.018 0.664,0.143 0.71,0.18 0.646,0.511 0.835,0.82 1.236,1.441 0.981,1.52 1.636,3.243 2.351,4.896 0.759,1.752 3.293,2.131 4.789,1.255 1.791,-1.049 2.014,-3.038 1.255,-4.789 -2.039,-4.71 -4.503,-9.745 -10.341,-9.983 -4.516,-0.185 -4.498,6.816 0,7"
         clip-path="url(#SVGID_9_)"
         id="path124"
         style="fill:#5555ff" /></g><g
       transform="translate(-0.50000001,0)"
       clip-path="url(#SVGID_2_)"
       id="g126"
       style="fill:#000000"><path
         d="m 187.835,269.075 c 0,-0.896 -0.512,-1.408 -1.408,-1.408 h -2.752 v -7.104 h 8.191 c 3.072,0 4.352,1.344 4.352,4.352 v 32.574 c 0,0.896 0.512,1.408 1.408,1.408 h 9.919 c 0.896,0 1.408,-0.512 1.408,-1.408 v -2.752 h 7.615 v 6.912 c 0,3.072 -1.28,4.352 -4.352,4.352 h -20.031 c -3.072,0 -4.352,-1.28 -4.352,-4.352 v -32.574 z"
         id="path128"
         style="fill:#000000" /><path
         d="m 224.60601,267.667 h -6.976 c -0.896,0 -1.408,0.512 -1.408,1.408 v 2.752 h -7.359 v -7.167 c 0,-3.008 1.024,-4.096 4.096,-4.096 h 31.678 c 3.072,0 4.096,1.088 4.096,4.096 v 7.167 h -7.359 v -2.752 c 0,-0.896 -0.512,-1.408 -1.408,-1.408 h -6.975 V 306 h -8.384 v -38.333 z"
         id="path130"
         style="fill:#000000" /></g></g></svg>